<svg width="31" height="30" viewBox="0 0 31 30" fill="none" xmlns="http://www.w3.org/2000/svg">
<rect x="0.5" y="0.5" width="29.0207" height="29" rx="4.5" stroke="white"/>
<path d="M15.0137 11.4059C13.0248 11.4059 11.4206 13.009 11.4206 14.9965C11.4206 16.984 13.0248 18.5871 15.0137 18.5871C17.0026 18.5871 18.6068 16.984 18.6068 14.9965C18.6068 13.009 17.0026 11.4059 15.0137 11.4059ZM15.0137 17.3309C13.7285 17.3309 12.6777 16.284 12.6777 14.9965C12.6777 13.709 13.7253 12.6621 15.0137 12.6621C16.3021 12.6621 17.3497 13.709 17.3497 14.9965C17.3497 16.284 16.299 17.3309 15.0137 17.3309ZM19.5919 11.259C19.5919 11.7246 19.2166 12.0965 18.7538 12.0965C18.2878 12.0965 17.9157 11.7215 17.9157 11.259C17.9157 10.7965 18.291 10.4215 18.7538 10.4215C19.2166 10.4215 19.5919 10.7965 19.5919 11.259ZM21.9716 12.109C21.9185 10.9871 21.662 9.99336 20.8396 9.17461C20.0203 8.35586 19.0259 8.09961 17.9032 8.04336C16.7462 7.97773 13.2781 7.97773 12.1211 8.04336C11.0016 8.09648 10.0071 8.35273 9.1847 9.17148C8.36226 9.99023 8.10896 10.984 8.05267 12.1059C7.987 13.2621 7.987 16.7277 8.05267 17.884C8.10583 19.0059 8.36226 19.9996 9.1847 20.8184C10.0071 21.6371 10.9984 21.8934 12.1211 21.9496C13.2781 22.0152 16.7462 22.0152 17.9032 21.9496C19.0259 21.8965 20.0203 21.6402 20.8396 20.8184C21.6589 19.9996 21.9153 19.0059 21.9716 17.884C22.0373 16.7277 22.0373 13.2652 21.9716 12.109ZM20.4769 19.1246C20.2329 19.7371 19.7607 20.209 19.1447 20.4559C18.2222 20.8215 16.0332 20.7371 15.0137 20.7371C13.9943 20.7371 11.8021 20.8184 10.8827 20.4559C10.2698 20.2121 9.79762 19.7402 9.55058 19.1246C9.1847 18.2027 9.26913 16.0152 9.26913 14.9965C9.26913 13.9777 9.18783 11.7871 9.55058 10.8684C9.7945 10.2559 10.2667 9.78398 10.8827 9.53711C11.8053 9.17148 13.9943 9.25586 15.0137 9.25586C16.0332 9.25586 18.2253 9.17461 19.1447 9.53711C19.7576 9.78086 20.2298 10.2527 20.4769 10.8684C20.8427 11.7902 20.7583 13.9777 20.7583 14.9965C20.7583 16.0152 20.8427 18.2059 20.4769 19.1246Z" fill="white"/>
</svg>
