<svg width="31" height="30" viewBox="0 0 31 30" fill="none" xmlns="http://www.w3.org/2000/svg">
<rect x="0.5" y="0.5" width="29.0207" height="29" rx="4.5" stroke="white"/>
<path d="M11.1413 20.9997H8.23678V11.6528H11.1413V20.9997ZM9.68747 10.3778C8.7587 10.3778 8.00537 9.60906 8.00537 8.68094C8.00537 8.23513 8.18259 7.80757 8.49805 7.49234C8.8135 7.1771 9.24135 7 9.68747 7C10.1336 7 10.5614 7.1771 10.8769 7.49234C11.1923 7.80757 11.3696 8.23513 11.3696 8.68094C11.3696 9.60906 10.6159 10.3778 9.68747 10.3778ZM22.0119 20.9997H19.1136V16.4497C19.1136 15.3653 19.0918 13.9747 17.6035 13.9747C16.0934 13.9747 15.862 15.1528 15.862 16.3716V20.9997H12.9607V11.6528H15.7463V12.9278H15.787C16.1747 12.1934 17.122 11.4184 18.5351 11.4184C21.4746 11.4184 22.015 13.3528 22.015 15.8653V20.9997H22.0119Z" fill="white"/>
</svg>
