<svg width="31" height="30" viewBox="0 0 31 30" fill="none" xmlns="http://www.w3.org/2000/svg">
<rect x="0.5" y="0.5" width="29.0207" height="29" rx="4.5" stroke="white"/>
<g clip-path="url(#clip0_1026_1433)">
<path d="M21.3701 11.7405C21.3803 11.8826 21.3803 12.0248 21.3803 12.1669C21.3803 16.5019 18.0785 21.4969 12.0439 21.4969C10.1847 21.4969 8.45766 20.9588 7.00488 20.0248C7.26903 20.0552 7.52299 20.0654 7.7973 20.0654C9.33133 20.0654 10.7435 19.5476 11.8712 18.6644C10.4286 18.6339 9.2196 17.6898 8.80306 16.3903C9.00626 16.4207 9.20943 16.441 9.4228 16.441C9.71741 16.441 10.012 16.4004 10.2863 16.3294C8.78276 16.0248 7.65505 14.705 7.65505 13.1111V13.0705C8.09188 13.3141 8.59989 13.4664 9.13829 13.4867C8.25443 12.8979 7.67538 11.8928 7.67538 10.7557C7.67538 10.1466 7.83789 9.58823 8.12237 9.10092C9.7377 11.0908 12.1658 12.3902 14.8884 12.5324C14.8377 12.2887 14.8072 12.035 14.8072 11.7811C14.8072 9.97402 16.2701 8.50195 18.0886 8.50195C19.0334 8.50195 19.8868 8.89789 20.4862 9.53748C21.2278 9.39536 21.9389 9.12123 22.5689 8.74561C22.325 9.50705 21.8069 10.1466 21.1262 10.5527C21.7866 10.4817 22.4266 10.2989 23.0158 10.0451C22.5689 10.6948 22.0101 11.2735 21.3701 11.7405Z" fill="white"/>
</g>
<defs>
<clipPath id="clip0_1026_1433">
<rect width="16.011" height="16" fill="white" transform="translate(7.00488 7)"/>
</clipPath>
</defs>
</svg>
